<?xml version="1.0" standalone="no"?>
<!DOCTYPE svg PUBLIC "-//W3C//DTD SVG 20010904//EN"
 "http://www.w3.org/TR/2001/REC-SVG-20010904/DTD/svg10.dtd">
<svg version="1.0" xmlns="http://www.w3.org/2000/svg"
 width="600.000000pt" height="600.000000pt" viewBox="0 0 600.000000 600.000000"
 preserveAspectRatio="xMidYMid meet">
<metadata>
Created by potrace 1.14, written by Peter Selinger 2001-2017
</metadata>
<g transform="translate(0.000000,600.000000) scale(0.100000,-0.100000)"
fill="#000000" stroke="none">
<path d="M2220 5310 l0 -30 -90 0 -90 0 0 -30 0 -30 -60 0 -60 0 0 -30 0 -30
-90 0 -90 0 0 -30 0 -30 -60 0 -60 0 0 -30 c0 -27 -3 -30 -30 -30 l-30 0 0
-60 0 -60 -30 0 c-27 0 -30 3 -30 30 l0 30 -300 0 -300 0 0 -30 0 -30 -120 0
-120 0 0 -30 0 -30 -90 0 -90 0 0 -30 0 -30 -60 0 -60 0 0 -30 0 -30 -60 0
-60 0 0 -30 c0 -27 -3 -30 -30 -30 l-30 0 0 -210 0 -210 30 0 30 0 0 -60 0
-60 30 0 30 0 0 -60 0 -60 30 0 c27 0 30 -3 30 -30 0 -27 3 -30 30 -30 l30 0
0 -120 0 -120 30 0 30 0 0 -180 0 -180 60 0 60 0 0 -30 c0 -27 3 -30 30 -30
27 0 30 -3 30 -30 0 -27 3 -30 30 -30 27 0 30 -3 30 -30 0 -27 3 -30 30 -30
l30 0 0 -240 0 -240 30 0 30 0 0 -60 0 -60 30 0 c27 0 30 3 30 30 0 27 3 30
30 30 l30 0 0 -60 0 -60 -30 0 -30 0 0 -150 0 -150 30 0 30 0 0 -150 0 -150
-30 0 c-27 0 -30 -3 -30 -30 0 -27 3 -30 30 -30 27 0 30 -3 30 -30 0 -27 -3
-30 -30 -30 l-30 0 0 -210 0 -210 30 0 c27 0 30 -3 30 -30 0 -27 3 -30 30 -30
l30 0 0 -60 0 -60 30 0 c27 0 30 -3 30 -30 l0 -30 60 0 60 0 0 -30 0 -30 60 0
60 0 0 -30 c0 -27 3 -30 30 -30 27 0 30 -3 30 -30 l0 -30 180 0 180 0 0 30 0
30 120 0 120 0 0 30 c0 27 3 30 30 30 27 0 30 -3 30 -30 0 -27 3 -30 30 -30
27 0 30 -3 30 -30 0 -27 3 -30 30 -30 l30 0 0 60 0 60 30 0 c27 0 30 -3 30
-30 0 -27 3 -30 30 -30 l30 0 0 -60 0 -60 30 0 c27 0 30 -3 30 -30 0 -27 3
-30 30 -30 27 0 30 -3 30 -30 l0 -30 60 0 60 0 0 -30 c0 -27 3 -30 30 -30 27
0 30 3 30 30 0 27 3 30 30 30 27 0 30 -3 30 -30 0 -27 3 -30 30 -30 27 0 30
-3 30 -30 0 -27 3 -30 30 -30 27 0 30 3 30 30 0 27 3 30 30 30 27 0 30 3 30
30 0 27 3 30 30 30 27 0 30 3 30 30 0 27 -3 30 -30 30 -27 0 -30 -3 -30 -30 0
-27 -3 -30 -30 -30 -27 0 -30 3 -30 30 0 27 -3 30 -30 30 -27 0 -30 3 -30 30
l0 30 -60 0 -60 0 0 -60 0 -60 -30 0 c-27 0 -30 3 -30 30 0 27 -3 30 -30 30
-27 0 -30 3 -30 30 0 27 3 30 30 30 27 0 30 3 30 30 0 27 -3 30 -30 30 -27 0
-30 3 -30 30 0 27 -3 30 -30 30 -27 0 -30 3 -30 30 l0 30 -60 0 -60 0 0 30 0
30 60 0 60 0 0 30 0 30 60 0 60 0 0 30 0 30 90 0 90 0 0 -30 0 -30 60 0 60 0
0 -30 0 -30 60 0 60 0 0 30 0 30 90 0 90 0 0 -30 0 -30 60 0 60 0 0 30 c0 27
3 30 30 30 l30 0 0 60 0 60 90 0 90 0 0 -30 c0 -27 3 -30 30 -30 27 0 30 3 30
30 0 27 3 30 30 30 l30 0 0 -60 0 -60 30 0 c27 0 30 -3 30 -30 l0 -30 90 0 90
0 0 -60 0 -60 30 0 c27 0 30 -3 30 -30 0 -27 3 -30 30 -30 27 0 30 3 30 30 0
27 3 30 30 30 27 0 30 -3 30 -30 0 -27 3 -30 30 -30 27 0 30 3 30 30 l0 30 60
0 60 0 0 -60 0 -60 30 0 c27 0 30 3 30 30 l0 30 150 0 150 0 0 30 0 30 120 0
120 0 0 30 c0 27 3 30 30 30 27 0 30 3 30 30 0 27 3 30 30 30 27 0 30 3 30 30
0 27 3 30 30 30 l30 0 0 90 0 90 30 0 30 0 0 90 0 90 -30 0 c-27 0 -30 -3 -30
-30 0 -27 -3 -30 -30 -30 -27 0 -30 -3 -30 -30 0 -27 -3 -30 -30 -30 -27 0
-30 -3 -30 -30 0 -27 -3 -30 -30 -30 -27 0 -30 3 -30 30 0 27 -3 30 -30 30
-27 0 -30 -3 -30 -30 l0 -30 -210 0 -210 0 0 30 0 30 -60 0 -60 0 0 30 c0 27
-3 30 -30 30 l-30 0 0 90 0 90 -60 0 -60 0 0 30 c0 27 -3 30 -30 30 -27 0 -30
3 -30 30 0 27 3 30 30 30 27 0 30 3 30 30 l0 30 60 0 60 0 0 150 0 150 -30 0
-30 0 0 60 0 60 -30 0 c-27 0 -30 3 -30 30 0 27 3 30 30 30 l30 0 0 60 0 60
-30 0 -30 0 0 60 0 60 -30 0 -30 0 0 90 0 90 -30 0 -30 0 0 60 0 60 -30 0 -30
0 0 60 0 60 -30 0 c-27 0 -30 3 -30 30 0 27 -3 30 -30 30 l-30 0 0 120 0 120
-30 0 -30 0 0 60 0 60 -30 0 c-27 0 -30 -3 -30 -30 0 -27 -3 -30 -30 -30 l-30
0 0 60 0 60 -60 0 -60 0 0 30 0 30 -60 0 -60 0 0 30 0 30 -90 0 -90 0 0 30 c0
27 -3 30 -30 30 -27 0 -30 3 -30 30 0 27 -3 30 -30 30 -27 0 -30 -3 -30 -30 0
-27 3 -30 30 -30 27 0 30 -3 30 -30 0 -27 -3 -30 -30 -30 -27 0 -30 -3 -30
-30 0 -27 3 -30 30 -30 l30 0 0 -60 0 -60 30 0 c27 0 30 -3 30 -30 0 -27 -3
-30 -30 -30 -27 0 -30 -3 -30 -30 l0 -30 -60 0 -60 0 0 30 c0 27 -3 30 -30 30
-27 0 -30 3 -30 30 l0 30 -90 0 -90 0 0 30 0 30 90 0 90 0 0 30 c0 27 3 30 30
30 l30 0 0 60 0 60 -30 0 c-27 0 -30 -3 -30 -30 l0 -30 -90 0 -90 0 0 -30 0
-30 -90 0 -90 0 0 -30 c0 -27 -3 -30 -30 -30 -27 0 -30 -3 -30 -30 0 -27 -3
-30 -30 -30 -27 0 -30 -3 -30 -30 0 -27 -3 -30 -30 -30 -27 0 -30 -3 -30 -30
l0 -30 -60 0 -60 0 0 -30 c0 -27 -3 -30 -30 -30 -27 0 -30 -3 -30 -30 l0 -30
-60 0 -60 0 0 -30 c0 -27 -3 -30 -30 -30 l-30 0 0 -60 0 -60 -60 0 -60 0 0 60
0 60 -60 0 -60 0 0 30 c0 27 -3 30 -30 30 l-30 0 0 90 0 90 90 0 90 0 0 30 c0
27 -3 30 -30 30 l-30 0 0 90 0 90 -30 0 c-27 0 -30 3 -30 30 l0 30 -90 0 -90
0 0 30 c0 27 -3 30 -30 30 -27 0 -30 3 -30 30 0 27 -3 30 -30 30 l-30 0 0 60
0 60 90 0 90 0 0 -30 0 -30 60 0 60 0 0 -30 0 -30 60 0 60 0 0 -30 c0 -27 3
-30 30 -30 27 0 30 -3 30 -30 0 -27 3 -30 30 -30 27 0 30 -3 30 -30 l0 -30 60
0 60 0 0 30 c0 27 3 30 30 30 27 0 30 3 30 30 0 27 3 30 30 30 27 0 30 3 30
30 0 27 3 30 30 30 27 0 30 3 30 30 l0 30 90 0 90 0 0 30 0 30 180 0 180 0 0
60 0 60 90 0 90 0 0 -60 0 -60 90 0 90 0 0 30 0 30 60 0 60 0 0 -30 0 -30 60
0 60 0 0 -30 0 -30 90 0 90 0 0 -30 0 -30 90 0 90 0 0 -30 c0 -27 3 -30 30
-30 27 0 30 -3 30 -30 l0 -30 60 0 60 0 0 -30 c0 -27 3 -30 30 -30 27 0 30 3
30 30 0 27 3 30 30 30 l30 0 0 60 0 60 30 0 c27 0 30 3 30 30 0 27 3 30 30 30
27 0 30 3 30 30 0 27 3 30 30 30 27 0 30 3 30 30 l0 30 60 0 60 0 0 -90 0 -90
-30 0 c-27 0 -30 -3 -30 -30 l0 -30 -60 0 -60 0 0 -30 c0 -27 3 -30 30 -30 27
0 30 -3 30 -30 0 -27 -3 -30 -30 -30 -27 0 -30 -3 -30 -30 0 -27 3 -30 30 -30
l30 0 0 -90 0 -90 -30 0 -30 0 0 -150 0 -150 -60 0 -60 0 0 90 0 90 -60 0 -60
0 0 30 0 30 -90 0 -90 0 0 -30 c0 -27 3 -30 30 -30 27 0 30 -3 30 -30 0 -27 3
-30 30 -30 l30 0 0 -60 0 -60 30 0 c27 0 30 -3 30 -30 0 -27 3 -30 30 -30 27
0 30 -3 30 -30 l0 -30 60 0 60 0 0 -30 c0 -27 3 -30 30 -30 l30 0 0 -60 0 -60
30 0 c27 0 30 -3 30 -30 l0 -30 60 0 60 0 0 -60 0 -60 30 0 c27 0 30 -3 30
-30 0 -27 3 -30 30 -30 27 0 30 -3 30 -30 0 -27 3 -30 30 -30 27 0 30 -3 30
-30 0 -27 3 -30 30 -30 l30 0 0 -60 0 -60 -30 0 c-27 0 -30 -3 -30 -30 0 -27
3 -30 30 -30 27 0 30 -3 30 -30 0 -27 3 -30 30 -30 27 0 30 -3 30 -30 0 -27 3
-30 30 -30 l30 0 0 -60 0 -60 90 0 90 0 0 -30 c0 -27 -3 -30 -30 -30 -27 0
-30 -3 -30 -30 0 -27 3 -30 30 -30 l30 0 0 -60 0 -60 60 0 60 0 0 210 0 210
30 0 30 0 0 60 0 60 30 0 30 0 0 120 0 120 30 0 30 0 0 90 0 90 -30 0 c-27 0
-30 3 -30 30 0 27 3 30 30 30 27 0 30 3 30 30 0 27 3 30 30 30 l30 0 0 120 0
120 30 0 30 0 0 90 0 90 30 0 c27 0 30 3 30 30 0 27 3 30 30 30 27 0 30 3 30
30 0 27 3 30 30 30 l30 0 0 60 0 60 30 0 30 0 0 150 0 150 30 0 30 0 0 60 0
60 30 0 30 0 0 60 0 60 30 0 30 0 0 60 0 60 30 0 30 0 0 210 0 210 -30 0 -30
0 0 60 0 60 -30 0 c-27 0 -30 3 -30 30 0 27 -3 30 -30 30 -27 0 -30 3 -30 30
l0 30 -120 0 -120 0 0 30 0 30 -60 0 -60 0 0 30 0 30 -210 0 -210 0 0 30 0 30
-150 0 -150 0 0 30 0 30 -60 0 -60 0 0 30 c0 27 -3 30 -30 30 -27 0 -30 3 -30
30 l0 30 -60 0 -60 0 0 30 0 30 -60 0 -60 0 0 -30 c0 -27 3 -30 30 -30 l30 0
0 -90 0 -90 -90 0 -90 0 0 150 0 150 -30 0 -30 0 0 -90 0 -90 -60 0 -60 0 0
-30 c0 -27 -3 -30 -30 -30 l-30 0 0 60 0 60 30 0 30 0 0 60 0 60 -120 0 -120
0 0 30 0 30 -210 0 -210 0 0 -30 c0 -27 -3 -30 -30 -30 -27 0 -30 -3 -30 -30
l0 -30 -90 0 -90 0 0 30 c0 27 -3 30 -30 30 -27 0 -30 -3 -30 -30 0 -27 3 -30
30 -30 l30 0 0 -60 0 -60 -30 0 c-27 0 -30 3 -30 30 0 27 -3 30 -30 30 l-30 0
0 60 0 60 -60 0 -60 0 0 30 0 30 -240 0 -240 0 0 -30z m1380 -60 c0 -27 -3
-30 -30 -30 l-30 0 0 -60 0 -60 -30 0 -30 0 0 60 0 60 30 0 c27 0 30 3 30 30
0 27 3 30 30 30 27 0 30 -3 30 -30z m-1320 -180 l0 -30 120 0 120 0 0 -60 0
-60 -30 0 c-27 0 -30 -3 -30 -30 0 -27 -3 -30 -30 -30 l-30 0 0 -60 0 -60 30
0 c27 0 30 3 30 30 l0 30 60 0 60 0 0 -90 0 -90 30 0 c27 0 30 -3 30 -30 0
-27 -3 -30 -30 -30 -27 0 -30 3 -30 30 l0 30 -60 0 -60 0 0 -60 0 -60 -30 0
c-27 0 -30 -3 -30 -30 0 -27 -3 -30 -30 -30 -27 0 -30 3 -30 30 0 27 -3 30
-30 30 -27 0 -30 3 -30 30 0 27 3 30 30 30 27 0 30 3 30 30 0 27 3 30 30 30
l30 0 0 60 0 60 -60 0 -60 0 0 60 0 60 30 0 30 0 0 60 0 60 -30 0 c-27 0 -30
3 -30 30 0 27 -3 30 -30 30 -27 0 -30 3 -30 30 0 27 3 30 30 30 27 0 30 -3 30
-30z m780 0 c0 -27 -3 -30 -30 -30 -27 0 -30 3 -30 30 0 27 3 30 30 30 27 0
30 -3 30 -30z m-1020 -60 c0 -27 3 -30 30 -30 27 0 30 -3 30 -30 0 -27 -3 -30
-30 -30 -27 0 -30 -3 -30 -30 0 -27 -3 -30 -30 -30 l-30 0 0 90 0 90 30 0 c27
0 30 -3 30 -30z m1440 -60 c0 -27 3 -30 30 -30 27 0 30 -3 30 -30 l0 -30 60 0
60 0 0 -30 0 -30 -60 0 -60 0 0 -30 0 -30 -60 0 -60 0 0 60 0 60 -30 0 c-27 0
-30 3 -30 30 0 27 3 30 30 30 27 0 30 3 30 30 0 27 3 30 30 30 27 0 30 -3 30
-30z m900 0 l0 -30 -60 0 -60 0 0 30 0 30 60 0 60 0 0 -30z m180 -30 l0 -60
-30 0 c-27 0 -30 -3 -30 -30 0 -27 -3 -30 -30 -30 l-30 0 0 -60 0 -60 -60 0
-60 0 0 -30 c0 -27 -3 -30 -30 -30 -27 0 -30 -3 -30 -30 0 -27 -3 -30 -30 -30
-27 0 -30 -3 -30 -30 0 -27 -3 -30 -30 -30 -27 0 -30 -3 -30 -30 0 -27 -3 -30
-30 -30 l-30 0 0 -60 0 -60 -30 0 -30 0 0 -60 0 -60 -30 0 c-27 0 -30 -3 -30
-30 0 -27 -3 -30 -30 -30 -27 0 -30 -3 -30 -30 l0 -30 -60 0 -60 0 0 90 0 90
30 0 30 0 0 60 0 60 60 0 60 0 0 30 c0 27 -3 30 -30 30 -27 0 -30 3 -30 30 0
27 3 30 30 30 27 0 30 -3 30 -30 0 -27 3 -30 30 -30 27 0 30 3 30 30 0 27 3
30 30 30 27 0 30 3 30 30 0 27 3 30 30 30 l30 0 0 60 0 60 30 0 c27 0 30 3 30
30 l0 30 90 0 90 0 0 30 c0 27 3 30 30 30 l30 0 0 90 0 90 60 0 60 0 0 -60z
m-2760 -180 l0 -120 30 0 c27 0 30 -3 30 -30 l0 -30 60 0 60 0 0 -30 c0 -27 3
-30 30 -30 l30 0 0 -90 0 -90 30 0 30 0 0 -60 0 -60 30 0 c27 0 30 -3 30 -30
0 -27 3 -30 30 -30 l30 0 0 -90 0 -90 -30 0 c-27 0 -30 3 -30 30 0 27 -3 30
-30 30 -27 0 -30 3 -30 30 0 27 -3 30 -30 30 -27 0 -30 3 -30 30 0 27 -3 30
-30 30 -27 0 -30 3 -30 30 0 27 -3 30 -30 30 l-30 0 0 60 0 60 -30 0 c-27 0
-30 3 -30 30 0 27 -3 30 -30 30 -27 0 -30 3 -30 30 0 27 -3 30 -30 30 -27 0
-30 3 -30 30 0 27 -3 30 -30 30 -27 0 -30 3 -30 30 0 27 -3 30 -30 30 -27 0
-30 3 -30 30 0 27 -3 30 -30 30 l-30 0 0 60 0 60 30 0 c27 0 30 3 30 30 0 27
3 30 30 30 27 0 30 3 30 30 l0 30 60 0 60 0 0 -120z m1140 90 c0 -27 3 -30 30
-30 l30 0 0 -90 0 -90 -30 0 c-27 0 -30 3 -30 30 0 27 -3 30 -30 30 l-30 0 0
90 0 90 30 0 c27 0 30 -3 30 -30z m900 0 c0 -27 3 -30 30 -30 27 0 30 -3 30
-30 0 -27 3 -30 30 -30 l30 0 0 -90 0 -90 -90 0 -90 0 0 90 0 90 30 0 c27 0
30 3 30 30 l0 30 -60 0 -60 0 0 30 0 30 60 0 60 0 0 -30z m-2340 -180 l0 -30
-60 0 -60 0 0 30 0 30 60 0 60 0 0 -30z m3300 0 c0 -27 3 -30 30 -30 27 0 30
-3 30 -30 l0 -30 -90 0 -90 0 0 60 0 60 60 0 60 0 0 -30z m-3300 -120 l0 -30
-60 0 -60 0 0 30 0 30 60 0 60 0 0 -30z m2040 -60 c0 -27 -3 -30 -30 -30 -27
0 -30 -3 -30 -30 0 -27 -3 -30 -30 -30 l-30 0 0 60 0 60 60 0 60 0 0 -30z
m-840 -180 c0 -27 -3 -30 -30 -30 -27 0 -30 3 -30 30 0 27 3 30 30 30 27 0 30
-3 30 -30z m1020 -60 l0 -90 -30 0 c-27 0 -30 3 -30 30 0 27 -3 30 -30 30
l-30 0 0 60 0 60 60 0 60 0 0 -90z m-1260 0 c0 -27 -3 -30 -30 -30 -27 0 -30
-3 -30 -30 0 -27 3 -30 30 -30 27 0 30 -3 30 -30 l0 -30 -60 0 -60 0 0 60 0
60 30 0 c27 0 30 3 30 30 0 27 3 30 30 30 27 0 30 -3 30 -30z m1920 0 c0 -27
-3 -30 -30 -30 -27 0 -30 3 -30 30 0 27 3 30 30 30 27 0 30 -3 30 -30z m180
-30 l0 -60 -30 0 -30 0 0 60 0 60 30 0 30 0 0 -60z m-1080 -30 c0 -27 -3 -30
-30 -30 -27 0 -30 -3 -30 -30 0 -27 -3 -30 -30 -30 -27 0 -30 3 -30 30 0 27
-3 30 -30 30 -27 0 -30 3 -30 30 l0 30 90 0 90 0 0 -30z m120 -60 c0 -27 -3
-30 -30 -30 -27 0 -30 3 -30 30 0 27 3 30 30 30 27 0 30 -3 30 -30z m-2640
-120 c0 -27 -3 -30 -30 -30 -27 0 -30 3 -30 30 0 27 3 30 30 30 27 0 30 -3 30
-30z m900 0 c0 -27 -3 -30 -30 -30 -27 0 -30 3 -30 30 0 27 3 30 30 30 27 0
30 -3 30 -30z m-720 -300 c0 -27 -3 -30 -30 -30 -27 0 -30 -3 -30 -30 0 -27
-3 -30 -30 -30 -27 0 -30 3 -30 30 0 27 3 30 30 30 27 0 30 3 30 30 0 27 3 30
30 30 27 0 30 -3 30 -30z m3540 -150 l0 -60 -30 0 c-27 0 -30 -3 -30 -30 0
-27 -3 -30 -30 -30 -27 0 -30 3 -30 30 0 27 -3 30 -30 30 l-30 0 0 60 0 60 90
0 90 0 0 -60z m-3420 -30 c0 -27 3 -30 30 -30 27 0 30 -3 30 -30 0 -27 -3 -30
-30 -30 -27 0 -30 -3 -30 -30 0 -27 -3 -30 -30 -30 -27 0 -30 3 -30 30 l0 30
-60 0 -60 0 0 30 c0 27 3 30 30 30 27 0 30 3 30 30 l0 30 60 0 60 0 0 -30z
m480 -30 l0 -60 -30 0 -30 0 0 60 0 60 30 0 30 0 0 -60z m1500 30 c0 -27 -3
-30 -30 -30 -27 0 -30 3 -30 30 0 27 3 30 30 30 27 0 30 -3 30 -30z m1560
-360 c0 -27 -3 -30 -30 -30 -27 0 -30 -3 -30 -30 l0 -30 -60 0 -60 0 0 30 c0
27 -3 30 -30 30 -27 0 -30 3 -30 30 l0 30 120 0 120 0 0 -30z m-2400 -90 l0
-60 -60 0 -60 0 0 -30 c0 -27 -3 -30 -30 -30 l-30 0 0 -90 0 -90 -30 0 c-27 0
-30 -3 -30 -30 0 -27 -3 -30 -30 -30 l-30 0 0 -60 0 -60 -30 0 -30 0 0 -90 0
-90 -30 0 -30 0 0 -60 0 -60 30 0 c27 0 30 -3 30 -30 0 -27 -3 -30 -30 -30
l-30 0 0 -150 0 -150 30 0 30 0 0 -90 0 -90 30 0 30 0 0 -60 0 -60 -60 0 -60
0 0 -30 c0 -27 -3 -30 -30 -30 -27 0 -30 -3 -30 -30 0 -27 -3 -30 -30 -30 -27
0 -30 -3 -30 -30 0 -27 -3 -30 -30 -30 -27 0 -30 -3 -30 -30 0 -27 -3 -30 -30
-30 -27 0 -30 -3 -30 -30 0 -27 -3 -30 -30 -30 -27 0 -30 -3 -30 -30 0 -27 -3
-30 -30 -30 -27 0 -30 3 -30 30 0 27 -3 30 -30 30 -27 0 -30 -3 -30 -30 l0
-30 -60 0 -60 0 0 -30 c0 -27 -3 -30 -30 -30 -27 0 -30 3 -30 30 0 27 -3 30
-30 30 -27 0 -30 -3 -30 -30 0 -27 -3 -30 -30 -30 -27 0 -30 3 -30 30 0 27 -3
30 -30 30 -27 0 -30 3 -30 30 l0 30 -60 0 -60 0 0 60 0 60 -30 0 -30 0 0 60 0
60 30 0 30 0 0 120 0 120 30 0 c27 0 30 3 30 30 0 27 3 30 30 30 27 0 30 3 30
30 0 27 3 30 30 30 27 0 30 3 30 30 0 27 3 30 30 30 27 0 30 3 30 30 0 27 3
30 30 30 27 0 30 3 30 30 0 27 3 30 30 30 l30 0 0 60 0 60 30 0 30 0 0 90 0
90 30 0 30 0 0 60 0 60 30 0 c27 0 30 3 30 30 0 27 3 30 30 30 27 0 30 3 30
30 0 27 3 30 30 30 27 0 30 3 30 30 0 27 3 30 30 30 27 0 30 3 30 30 0 27 3
30 30 30 27 0 30 3 30 30 0 27 3 30 30 30 27 0 30 3 30 30 0 27 3 30 30 30 27
0 30 3 30 30 0 27 3 30 30 30 l30 0 0 60 0 60 90 0 90 0 0 30 0 30 90 0 90 0
0 -60z m376 -42 c4 -6 0 -16 -9 -23 -9 -7 -14 -15 -10 -18 3 -4 -1 -7 -10 -7
-12 0 -17 9 -17 30 0 23 5 30 19 30 11 0 23 -5 27 -12z m49 -18 c0 -20 -5 -30
-15 -30 -10 0 -15 10 -15 30 0 20 5 30 15 30 10 0 15 -10 15 -30z m168 6 c-4
-19 -1 -24 14 -23 21 2 37 23 28 37 -3 6 3 10 13 10 13 0 22 -9 26 -26 8 -31
-1 -45 -14 -24 -7 11 -10 12 -10 2 0 -10 -23 -13 -100 -11 -82 2 -98 5 -89 16
8 9 8 17 1 26 -9 11 3 14 62 15 73 3 73 3 69 -22z m147 13 c0 -5 -5 -7 -11 -3
-8 5 -10 -1 -7 -20 4 -20 1 -26 -12 -26 -13 0 -16 6 -12 26 3 19 1 25 -7 20
-6 -4 -11 -2 -11 3 0 6 14 11 30 11 17 0 30 -5 30 -11z m55 -19 c0 -16 -6 -26
-18 -28 -19 -4 -32 20 -23 44 9 25 41 13 41 -16z m60 10 c0 -8 4 -21 8 -27 5
-7 4 -13 0 -13 -5 0 -15 6 -22 13 -11 10 -13 10 -7 0 5 -8 1 -13 -11 -13 -13
0 -18 8 -18 30 0 27 3 30 25 28 14 -2 25 -10 25 -18z m225 -40 c0 -27 3 -30
30 -30 l30 0 0 -60 0 -60 -90 0 -90 0 0 60 0 60 30 0 c27 0 30 3 30 30 0 27 3
30 30 30 27 0 30 -3 30 -30z m-900 -60 c0 -27 -3 -30 -30 -30 -27 0 -30 3 -30
30 0 27 3 30 30 30 27 0 30 -3 30 -30z m-1140 -60 c0 -27 3 -30 30 -30 27 0
30 -3 30 -30 0 -27 -3 -30 -30 -30 -27 0 -30 3 -30 30 0 27 -3 30 -30 30 -27
0 -30 3 -30 30 0 27 3 30 30 30 27 0 30 -3 30 -30z m360 0 c0 -27 -3 -30 -30
-30 -27 0 -30 3 -30 30 0 27 3 30 30 30 27 0 30 -3 30 -30z m2700 0 c0 -27 -3
-30 -30 -30 -27 0 -30 3 -30 30 0 27 3 30 30 30 27 0 30 -3 30 -30z m-1620
-90 l0 -60 -30 0 c-27 0 -30 -3 -30 -30 0 -27 -3 -30 -30 -30 l-30 0 0 90 0
90 60 0 60 0 0 -60z m-1260 -30 c0 -27 -3 -30 -30 -30 -27 0 -30 3 -30 30 0
27 3 30 30 30 27 0 30 -3 30 -30z m1500 0 c0 -27 3 -30 30 -30 l30 0 0 -60 0
-60 -60 0 -60 0 0 90 0 90 30 0 c27 0 30 -3 30 -30z m360 -60 l0 -30 90 0 90
0 0 -30 0 -30 60 0 60 0 0 -60 0 -60 -90 0 -90 0 0 30 c0 27 3 30 30 30 27 0
30 3 30 30 l0 30 -90 0 -90 0 0 30 c0 27 -3 30 -30 30 -27 0 -30 3 -30 30 0
27 3 30 30 30 27 0 30 -3 30 -30z m1500 -60 c0 -27 -3 -30 -30 -30 -27 0 -30
3 -30 30 0 27 3 30 30 30 27 0 30 -3 30 -30z m-2220 -150 l0 -60 -60 0 -60 0
0 30 c0 27 3 30 30 30 27 0 30 3 30 30 0 27 3 30 30 30 l30 0 0 -60z m-300
-60 l0 -60 -30 0 -30 0 0 60 0 60 30 0 30 0 0 -60z m660 30 c0 -27 -3 -30 -30
-30 -27 0 -30 3 -30 30 0 27 3 30 30 30 27 0 30 -3 30 -30z m-840 -180 c0 -27
-3 -30 -30 -30 -27 0 -30 3 -30 30 0 27 3 30 30 30 27 0 30 -3 30 -30z m1080
0 c0 -27 -3 -30 -30 -30 -27 0 -30 3 -30 30 0 27 3 30 30 30 27 0 30 -3 30
-30z m-900 -60 c0 -27 3 -30 30 -30 27 0 30 -3 30 -30 0 -27 -3 -30 -30 -30
-27 0 -30 3 -30 30 0 27 -3 30 -30 30 -27 0 -30 3 -30 30 0 27 3 30 30 30 27
0 30 -3 30 -30z m480 -60 c0 -27 -3 -30 -30 -30 -27 0 -30 3 -30 30 0 27 3 30
30 30 27 0 30 -3 30 -30z m660 0 c0 -27 -3 -30 -30 -30 -27 0 -30 3 -30 30 0
27 3 30 30 30 27 0 30 -3 30 -30z m-1260 -60 c0 -27 -3 -30 -30 -30 -27 0 -30
3 -30 30 0 27 3 30 30 30 27 0 30 -3 30 -30z m360 0 c0 -27 -3 -30 -30 -30
-27 0 -30 3 -30 30 0 27 3 30 30 30 27 0 30 -3 30 -30z m1260 0 c0 -27 -3 -30
-30 -30 -27 0 -30 3 -30 30 0 27 3 30 30 30 27 0 30 -3 30 -30z m-1020 -60 c0
-27 -3 -30 -30 -30 -27 0 -30 3 -30 30 0 27 3 30 30 30 27 0 30 -3 30 -30z
m720 0 c0 -27 -3 -30 -30 -30 -27 0 -30 3 -30 30 0 27 3 30 30 30 27 0 30 -3
30 -30z m-960 -60 c0 -27 3 -30 30 -30 27 0 30 -3 30 -30 l0 -30 -90 0 -90 0
0 30 c0 27 3 30 30 30 27 0 30 3 30 30 0 27 3 30 30 30 27 0 30 -3 30 -30z
m540 0 c0 -27 -3 -30 -30 -30 -27 0 -30 -3 -30 -30 0 -27 -3 -30 -30 -30 -27
0 -30 3 -30 30 0 27 3 30 30 30 27 0 30 3 30 30 0 27 3 30 30 30 27 0 30 -3
30 -30z m240 -120 c0 -27 -3 -30 -30 -30 -27 0 -30 3 -30 30 0 27 3 30 30 30
27 0 30 -3 30 -30z m-1140 -60 c0 -27 -3 -30 -30 -30 -27 0 -30 3 -30 30 0 27
3 30 30 30 27 0 30 -3 30 -30z m300 0 c0 -27 -3 -30 -30 -30 -27 0 -30 -3 -30
-30 0 -27 -3 -30 -30 -30 -27 0 -30 3 -30 30 0 27 3 30 30 30 27 0 30 3 30 30
0 27 3 30 30 30 27 0 30 -3 30 -30z m1200 -60 c0 -27 -3 -30 -30 -30 -27 0
-30 3 -30 30 0 27 3 30 30 30 27 0 30 -3 30 -30z m-1380 -60 c0 -27 -3 -30
-30 -30 -27 0 -30 3 -30 30 0 27 3 30 30 30 27 0 30 -3 30 -30z m660 0 c0 -27
3 -30 30 -30 27 0 30 -3 30 -30 0 -27 3 -30 30 -30 27 0 30 -3 30 -30 0 -27 3
-30 30 -30 27 0 30 -3 30 -30 0 -27 3 -30 30 -30 27 0 30 -3 30 -30 l0 -30
-60 0 -60 0 0 -30 0 -30 -60 0 -60 0 0 -30 0 -30 -60 0 -60 0 0 30 0 30 -150
0 -150 0 0 30 c0 27 -3 30 -30 30 -27 0 -30 3 -30 30 0 27 3 30 30 30 27 0 30
3 30 30 0 27 3 30 30 30 27 0 30 3 30 30 0 27 3 30 30 30 27 0 30 3 30 30 0
27 3 30 30 30 27 0 30 3 30 30 l0 30 120 0 120 0 0 -30z m540 -60 l0 -30 -60
0 -60 0 0 30 0 30 60 0 60 0 0 -30z m240 0 c0 -27 -3 -30 -30 -30 -27 0 -30 3
-30 30 0 27 3 30 30 30 27 0 30 -3 30 -30z m-1440 -120 c0 -27 -3 -30 -30 -30
-27 0 -30 3 -30 30 0 27 3 30 30 30 27 0 30 -3 30 -30z m-180 -300 c0 -27 -3
-30 -30 -30 -27 0 -30 3 -30 30 0 27 3 30 30 30 27 0 30 -3 30 -30z m1800 0
c0 -27 3 -30 30 -30 27 0 30 -3 30 -30 0 -27 -3 -30 -30 -30 -27 0 -30 -3 -30
-30 0 -27 -3 -30 -30 -30 l-30 0 0 90 0 90 30 0 c27 0 30 -3 30 -30z m480 -30
l0 -60 -60 0 -60 0 0 30 c0 27 -3 30 -30 30 -27 0 -30 3 -30 30 l0 30 90 0 90
0 0 -60z m-2820 -30 c0 -27 -3 -30 -30 -30 -27 0 -30 3 -30 30 0 27 3 30 30
30 27 0 30 -3 30 -30z"/>
<path d="M1920 1650 c0 -27 3 -30 30 -30 27 0 30 3 30 30 0 27 -3 30 -30 30
-27 0 -30 -3 -30 -30z"/>
<path d="M1260 1290 c0 -27 3 -30 30 -30 27 0 30 3 30 30 0 27 -3 30 -30 30
-27 0 -30 -3 -30 -30z"/>
<path d="M2894 3009 c-3 -6 -1 -16 5 -22 8 -8 11 -5 11 11 0 24 -5 28 -16 11z"/>
<path d="M2940 3010 c10 -6 11 -10 3 -10 -7 0 -13 -4 -13 -8 0 -4 9 -8 20 -8
13 0 20 7 20 18 0 12 -8 18 -22 18 -19 0 -20 -2 -8 -10z"/>
<path d="M3172 3000 c0 -14 2 -19 5 -12 2 6 2 18 0 25 -3 6 -5 1 -5 -13z"/>
<path d="M3600 990 l0 -30 -60 0 -60 0 0 -30 0 -30 -120 0 -120 0 0 30 c0 27
-3 30 -30 30 -27 0 -30 -3 -30 -30 0 -27 -3 -30 -30 -30 -27 0 -30 -3 -30 -30
l0 -30 -60 0 -60 0 0 -30 c0 -27 -3 -30 -30 -30 -27 0 -30 -3 -30 -30 0 -27
-3 -30 -30 -30 -27 0 -30 -3 -30 -30 0 -27 -3 -30 -30 -30 -27 0 -30 -3 -30
-30 l0 -30 180 0 180 0 0 60 0 60 30 0 c27 0 30 -3 30 -30 0 -27 3 -30 30 -30
27 0 30 3 30 30 l0 30 90 0 90 0 0 60 0 60 60 0 60 0 0 30 0 30 60 0 60 0 0
30 c0 27 3 30 30 30 27 0 30 3 30 30 0 27 -3 30 -30 30 -27 0 -30 -3 -30 -30
0 -27 -3 -30 -30 -30 -27 0 -30 3 -30 30 0 27 -3 30 -30 30 -27 0 -30 -3 -30
-30z m-300 -240 c0 -27 -3 -30 -30 -30 -27 0 -30 3 -30 30 0 27 3 30 30 30 27
0 30 -3 30 -30z"/>
</g>
</svg>
